<?xml version="1.0" encoding="UTF-8"?>
<svg id="_Слой_1" data-name="Слой 1" xmlns="http://www.w3.org/2000/svg" viewBox="0 0 101 66">
  <defs>
    <style>
      .cls-1 {
        fill: #fff;
      }

      .cls-1, .cls-2 {
        fill-rule: evenodd;
      }

      .cls-2 {
        fill: #f90;
      }
    </style>
  </defs>
  <path class="cls-1" d="m65.05,36.63c-2,8.04-10.14,12.93-18.18,10.92-8.03-2-12.93-10.14-10.92-18.18,2-8.04,10.14-12.93,18.18-10.93,8.04,2,12.93,10.14,10.92,18.18h0Z"/>
  <path class="cls-2" d="m69.9,37.84c-2.67,10.72-13.52,17.24-24.24,14.56-10.71-2.67-17.23-13.53-14.56-24.24,2.67-10.72,13.52-17.24,24.24-14.57,10.72,2.67,17.24,13.53,14.57,24.24h0Zm-10.58-7.69c.4-2.66-1.63-4.09-4.4-5.05l.9-3.61-2.19-.55-.88,3.51c-.58-.14-1.17-.28-1.76-.41l.88-3.53-2.19-.55-.9,3.6c-.48-.11-.95-.22-1.4-.33h0s-3.03-.77-3.03-.77l-.58,2.34s1.63.37,1.59.4c.89.22,1.05.81,1.02,1.28l-1.02,4.11c.06.02.14.04.23.07-.07-.02-.15-.04-.23-.06l-1.44,5.75c-.11.27-.38.68-1.01.52.02.03-1.6-.4-1.6-.4l-1.09,2.51,2.86.71c.53.13,1.05.27,1.56.4l-.91,3.65,2.19.55.9-3.61c.6.16,1.18.31,1.75.45l-.9,3.59,2.19.55.91-3.64c3.74.71,6.56.42,7.74-2.96.95-2.73-.05-4.3-2.02-5.32,1.43-.33,2.51-1.27,2.8-3.22h0Zm-5.01,7.03c-.68,2.73-5.27,1.25-6.75.88l1.21-4.83c1.49.37,6.26,1.11,5.55,3.95h0Zm.68-7.07c-.62,2.48-4.44,1.22-5.68.91l1.09-4.38c1.24.31,5.23.89,4.58,3.47h0Z"/>
</svg>