<?xml version="1.0" encoding="UTF-8"?>
<svg id="_Слой_1" data-name="Слой 1" xmlns="http://www.w3.org/2000/svg" viewBox="0 0 101 66">
  <defs>
    <style>
      .cls-1 {
        fill: #fff;
      }

      .cls-2 {
        fill: #ee9f2d;
      }

      .cls-3 {
        fill: #d9222a;
      }
    </style>
  </defs>
  <path class="cls-3" d="m57.38,33c0,11.57-9.38,20.94-20.94,20.94s-20.94-9.38-20.94-20.94,9.38-20.94,20.94-20.94,20.94,9.38,20.94,20.94"/>
  <path class="cls-2" d="m64.56,12.06c-5.41,0-10.34,2.05-14.06,5.42-.76.69-1.46,1.43-2.11,2.22h4.23c.58.7,1.11,1.45,1.6,2.22h-7.42c-.45.71-.85,1.45-1.21,2.22h9.84c.34.72.63,1.46.89,2.22h-11.61c-.24.73-.45,1.47-.61,2.22h12.83c.31,1.46.47,2.94.47,4.43,0,2.33-.38,4.56-1.08,6.65h-11.61c.25.76.55,1.5.89,2.22h9.84c-.36.76-.76,1.5-1.21,2.22h-7.42c.48.77,1.02,1.51,1.6,2.22h4.23c-.65.79-1.36,1.53-2.12,2.22,3.72,3.37,8.65,5.42,14.06,5.42,11.57,0,20.94-9.38,20.94-20.94s-9.38-20.94-20.94-20.94"/>
  <path d="m82.71,44.67c0-.37.3-.68.68-.68s.68.3.68.68-.3.68-.68.68-.68-.3-.68-.68Zm.68.51c.28,0,.51-.23.51-.51,0-.28-.23-.51-.51-.51h0c-.28,0-.51.23-.51.51h0c0,.29.23.52.51.52,0,0,0,0,0,0h0Zm-.09-.22h-.14v-.59h.25c.05,0,.11,0,.15.03.05.03.08.09.08.15,0,.07-.04.13-.1.15l.11.26h-.15l-.09-.24h-.1v.24Zm0-.34h.08s.06,0,.08-.01c.02-.01.03-.04.03-.07,0-.02-.01-.05-.03-.06-.02-.02-.06-.01-.09-.01h-.07v.15h0Zm-51.74-9.34c-.24-.03-.34-.04-.51-.04-1.29,0-1.94.44-1.94,1.31,0,.54.32.88.82.88.93,0,1.59-.88,1.63-2.16h0Zm1.65,3.85h-1.88l.04-.9c-.57.71-1.34,1.04-2.38,1.04-1.23,0-2.08-.96-2.08-2.36,0-2.1,1.47-3.33,3.99-3.33.26,0,.59.02.93.07.07-.28.09-.41.09-.56,0-.57-.4-.79-1.46-.79-1.11-.01-2.03.26-2.41.39.02-.14.31-1.94.31-1.94,1.13-.33,1.88-.46,2.72-.46,1.95,0,2.99.88,2.98,2.53,0,.44-.07.99-.18,1.71-.2,1.25-.62,3.93-.68,4.59h0Zm-7.25,0h-2.27l1.3-8.17-2.91,8.17h-1.55l-.19-8.12-1.37,8.12h-2.13l1.78-10.62h3.27l.2,5.95,1.99-5.95h3.64l-1.76,10.62m41.41-3.85c-.24-.03-.34-.04-.51-.04-1.29,0-1.94.44-1.94,1.31,0,.54.32.88.81.88.93,0,1.59-.88,1.63-2.16h0Zm1.65,3.85h-1.88l.04-.9c-.57.71-1.34,1.04-2.38,1.04-1.23,0-2.08-.96-2.08-2.36,0-2.1,1.47-3.33,3.99-3.33.26,0,.59.02.93.07.07-.28.09-.41.09-.56,0-.57-.4-.79-1.46-.79-1.11-.01-2.03.26-2.41.39.02-.14.32-1.94.32-1.94,1.13-.33,1.88-.46,2.72-.46,1.95,0,2.99.88,2.99,2.53,0,.44-.07.99-.18,1.71-.2,1.25-.62,3.93-.68,4.59h0Zm-25.71-.13c-.62.2-1.11.28-1.63.28-1.16,0-1.8-.67-1.8-1.9-.02-.38.17-1.39.31-2.3.13-.81.99-5.9.99-5.9h2.26l-.26,1.31h1.36l-.31,2.08h-1.37c-.26,1.64-.64,3.69-.64,3.96,0,.45.24.64.78.64.26,0,.46-.03.61-.08l-.3,1.91m6.93-.07c-.78.24-1.53.35-2.32.35-2.53,0-3.85-1.32-3.85-3.85,0-2.95,1.68-5.13,3.95-5.13,1.86,0,3.05,1.22,3.05,3.13,0,.63-.08,1.25-.28,2.12h-4.5c-.15,1.25.65,1.78,1.96,1.78.81,0,1.54-.17,2.35-.54l-.38,2.15h0Zm-1.27-5.12c.01-.18.24-1.54-1.05-1.54-.72,0-1.23.55-1.44,1.54h2.5Zm-14.4-.59c0,1.09.53,1.85,1.73,2.41.92.43,1.06.56,1.06.95,0,.54-.41.78-1.31.78-.68,0-1.31-.11-2.04-.34,0,0-.3,1.9-.31,2,.52.11.98.22,2.37.26,2.4,0,3.51-.91,3.51-2.89,0-1.19-.46-1.88-1.6-2.41-.95-.44-1.06-.54-1.06-.94,0-.47.38-.71,1.11-.71.45,0,1.06.05,1.63.13l.32-2c-.59-.09-1.48-.17-2-.17-2.54,0-3.42,1.33-3.42,2.92m26.73-2.7c.63,0,1.22.17,2.03.57l.37-2.31c-.33-.13-1.51-.9-2.5-.9-1.52,0-2.81.75-3.71,2-1.32-.44-1.86.45-2.53,1.33l-.59.14c.04-.29.09-.58.07-.87h-2.09c-.29,2.67-.79,5.38-1.19,8.06l-.1.58h2.27c.38-2.47.59-4.05.71-5.11l.86-.48c.13-.48.53-.64,1.33-.62-.11.58-.16,1.18-.16,1.77,0,2.83,1.52,4.59,3.97,4.59.63,0,1.17-.08,2.01-.31l.4-2.42c-.75.37-1.37.55-1.93.55-1.32,0-2.12-.98-2.12-2.59,0-2.34,1.19-3.98,2.89-3.98"/>
  <path class="cls-1" d="m26.61,38.51h-2.27l1.3-8.17-2.91,8.17h-1.55l-.19-8.12-1.37,8.12h-2.13l1.78-10.62h3.27l.09,6.58,2.21-6.58h3.53l-1.76,10.62"/>
  <path d="m80.54,28.52l-.5,3.07c-.62-.82-1.29-1.41-2.17-1.41-1.15,0-2.19.87-2.87,2.15-.95-.2-1.94-.53-1.94-.53h0c.08-.71.11-1.14.1-1.29h-2.09c-.28,2.67-.79,5.38-1.18,8.06l-.1.58h2.27c.31-1.99.54-3.65.72-4.96.78-.7,1.17-1.31,1.95-1.27-.35.84-.55,1.81-.55,2.8,0,2.16,1.09,3.58,2.75,3.58.83,0,1.47-.29,2.1-.95l-.11.8h2.15l1.73-10.62h-2.24s0,0,0,0Zm-2.84,8.63c-.77,0-1.16-.57-1.16-1.7,0-1.7.73-2.9,1.76-2.9.78,0,1.2.6,1.2,1.69,0,1.71-.74,2.91-1.8,2.91h0Z"/>
  <path class="cls-1" d="m32.21,34.66c-.24-.03-.34-.03-.51-.03-1.29,0-1.94.44-1.94,1.31,0,.54.32.88.81.88.93,0,1.59-.88,1.63-2.16h0Zm1.65,3.85h-1.88l.04-.89c-.57.71-1.34,1.04-2.38,1.04-1.23,0-2.08-.96-2.08-2.36,0-2.1,1.47-3.33,3.99-3.33.26,0,.59.02.93.07.07-.28.09-.41.09-.56,0-.57-.4-.79-1.46-.79-1.11-.01-2.03.26-2.41.39.02-.14.31-1.94.31-1.94,1.13-.33,1.88-.46,2.72-.46,1.95,0,2.99.88,2.99,2.53,0,.45-.07.99-.18,1.71-.2,1.25-.62,3.93-.68,4.59h0Zm30.49-10.34l-.37,2.31c-.81-.41-1.4-.57-2.03-.57-1.7,0-2.89,1.64-2.89,3.98,0,1.61.8,2.59,2.12,2.59.56,0,1.18-.17,1.93-.55l-.4,2.42c-.84.23-1.38.31-2.01.31-2.45,0-3.97-1.76-3.97-4.59,0-3.8,2.11-6.45,5.12-6.45.99,0,2.17.42,2.5.55m3.67,6.49c-.24-.03-.34-.03-.51-.03-1.29,0-1.94.44-1.94,1.31,0,.54.32.88.81.88.93,0,1.59-.88,1.63-2.16h0Zm1.65,3.85h-1.88l.04-.89c-.57.71-1.34,1.04-2.38,1.04-1.23,0-2.08-.96-2.08-2.36,0-2.1,1.47-3.33,3.99-3.33.26,0,.59.02.93.07.07-.28.09-.41.09-.56,0-.57-.4-.79-1.46-.79-1.11-.01-2.03.26-2.41.39.02-.14.32-1.94.32-1.94,1.13-.33,1.88-.46,2.72-.46,1.95,0,2.99.88,2.98,2.53,0,.45-.07.99-.18,1.71-.2,1.25-.62,3.93-.68,4.59h0Zm-25.71-.13c-.62.2-1.11.28-1.63.28-1.16,0-1.8-.67-1.8-1.9-.02-.38.17-1.39.31-2.3.13-.81.99-5.9.99-5.9h2.26l-.26,1.31h1.16l-.31,2.08h-1.16c-.26,1.64-.64,3.69-.64,3.96,0,.45.24.64.78.64.26,0,.46-.03.61-.08l-.3,1.91m6.93-.07c-.78.24-1.53.35-2.32.35-2.53,0-3.85-1.32-3.85-3.85,0-2.95,1.68-5.13,3.95-5.13,1.86,0,3.05,1.22,3.05,3.13,0,.63-.08,1.25-.28,2.12h-4.5c-.15,1.25.65,1.78,1.96,1.78.81,0,1.54-.17,2.35-.55l-.38,2.15h0Zm-1.27-5.12c.01-.18.24-1.54-1.05-1.54-.72,0-1.23.55-1.44,1.54h2.5Zm-14.4-.58c0,1.09.53,1.85,1.73,2.41.92.43,1.06.56,1.06.95,0,.54-.41.78-1.31.78-.68,0-1.31-.11-2.04-.34,0,0-.3,1.9-.31,2,.52.11.98.22,2.37.26,2.4,0,3.51-.91,3.51-2.89,0-1.19-.46-1.88-1.6-2.41-.95-.44-1.06-.53-1.06-.94,0-.47.38-.71,1.11-.71.45,0,1.06.05,1.63.13l.32-2c-.59-.09-1.48-.17-2-.17-2.54,0-3.42,1.33-3.42,2.92m46.49,5.91h-2.15l.11-.8c-.62.67-1.26.95-2.1.95-1.65,0-2.74-1.42-2.74-3.58,0-2.87,1.69-5.3,3.7-5.3.88,0,1.55.36,2.17,1.18l.5-3.07h2.24l-1.73,10.62h0Zm-3.35-2c1.06,0,1.8-1.2,1.8-2.91,0-1.1-.42-1.69-1.2-1.69-1.03,0-1.76,1.2-1.76,2.9,0,1.13.39,1.7,1.17,1.7Zm-6.63-6.64c-.28,2.67-.79,5.38-1.19,8.06l-.1.58h2.27c.81-5.28,1.01-6.31,2.29-6.18.2-1.08.58-2.03.86-2.51-.95-.2-1.48.34-2.18,1.36.05-.44.16-.87.14-1.31h-2.09m-18.72,0c-.29,2.67-.79,5.38-1.19,8.06l-.1.58h2.27c.81-5.28,1.01-6.31,2.28-6.18.2-1.08.58-2.03.86-2.51-.95-.2-1.48.34-2.18,1.36.05-.44.15-.87.14-1.31h-2.09m29.7,7.96c0-.37.3-.68.67-.68h0c.37,0,.68.3.68.67h0c0,.38-.3.68-.68.68-.37,0-.68-.3-.68-.68h0Zm.68.51c.28,0,.51-.23.51-.51h0c0-.28-.23-.51-.51-.51h0c-.28,0-.51.23-.51.51,0,.28.23.51.51.51h0Zm-.09-.22h-.14v-.59h.25c.05,0,.11,0,.15.03.05.03.08.09.08.15,0,.07-.04.13-.1.15l.11.26h-.15l-.09-.23h-.1v.23s0,0,0,0Zm0-.34h.08s.06,0,.09-.01c.02-.01.03-.04.03-.07,0-.02-.01-.05-.03-.06-.02-.01-.06,0-.09,0h-.07v.15s0,0,0,0Z"/>
</svg>