<?xml version="1.0" encoding="UTF-8"?>
<svg id="_Слой_1" data-name="Слой 1" xmlns="http://www.w3.org/2000/svg" viewBox="0 0 101 66">
  <defs>
    <style>
      .cls-1 {
        fill: #012169;
      }

      .cls-2 {
        fill: #009cde;
      }

      .cls-3 {
        fill: #003087;
      }
    </style>
  </defs>
  <path class="cls-3" d="m28.31,25.46c-.82-.94-2.31-1.34-4.21-1.34h-5.52c-.39,0-.72.28-.78.67l-2.3,14.57c-.04.26.14.5.39.54.02,0,.05,0,.07,0h3.41l.86-5.43-.03.17c.06-.38.39-.67.78-.67h1.62c3.18,0,5.67-1.29,6.4-5.03.02-.11.04-.22.06-.32.22-1.38,0-2.32-.75-3.17"/>
  <path class="cls-2" d="m70.01,32.4c-.21,1.37-1.25,1.37-2.26,1.37h-.57l.4-2.55c.02-.15.16-.27.31-.27h.26c.69,0,1.34,0,1.67.39.2.23.26.58.18,1.06m-.44-3.57h-3.81c-.26,0-.48.19-.52.45l-1.54,9.77c-.03.17.09.34.26.36.02,0,.03,0,.05,0h1.95c.18,0,.34-.13.37-.31l.44-2.77c.04-.26.26-.45.52-.45h1.21c2.51,0,3.96-1.21,4.34-3.62.17-1.05,0-1.88-.49-2.46-.54-.64-1.5-.97-2.78-.97"/>
  <path class="cls-3" d="m42.84,32.4c-.21,1.37-1.25,1.37-2.26,1.37h-.57l.4-2.55c.02-.15.16-.27.31-.27h.26c.69,0,1.34,0,1.67.39.2.23.26.58.19,1.06m-.44-3.57h-3.81c-.26,0-.48.19-.52.45l-1.54,9.77c-.03.17.09.34.26.36.02,0,.03,0,.05,0h1.82c.26,0,.48-.19.52-.45l.42-2.63c.04-.26.26-.45.52-.45h1.21c2.51,0,3.96-1.21,4.34-3.62.17-1.05,0-1.88-.49-2.46-.54-.64-1.5-.97-2.78-.97m8.84,7.07c-.18,1.04-1,1.74-2.06,1.74-.53,0-.95-.17-1.22-.49-.27-.32-.37-.77-.29-1.28.16-1.03,1-1.76,2.04-1.76.52,0,.94.17,1.22.5.28.33.39.79.31,1.29m2.54-3.55h-1.82c-.16,0-.29.11-.31.27l-.08.51-.13-.18c-.39-.57-1.28-.77-2.15-.77-2.02,0-3.74,1.53-4.07,3.67-.17,1.07.07,2.09.68,2.8.56.65,1.35.93,2.3.93,1.62,0,2.53-1.04,2.53-1.04l-.08.51c-.03.17.09.34.26.36.02,0,.03,0,.05,0h1.64c.26,0,.48-.19.52-.45l.99-6.24c.03-.17-.09-.34-.26-.36-.02,0-.03,0-.05,0"/>
  <path class="cls-2" d="m78.42,35.9c-.18,1.04-1,1.74-2.06,1.74-.53,0-.95-.17-1.22-.49-.27-.32-.37-.77-.29-1.28.16-1.03,1-1.76,2.04-1.76.52,0,.94.17,1.22.5.28.33.39.79.31,1.29m2.54-3.55h-1.82c-.16,0-.29.11-.31.27l-.08.51-.13-.18c-.39-.57-1.28-.77-2.15-.77-2.01,0-3.74,1.53-4.07,3.67-.17,1.07.07,2.09.68,2.8.56.65,1.35.93,2.3.93,1.63,0,2.53-1.04,2.53-1.04l-.08.51c-.03.17.09.33.26.36.02,0,.03,0,.05,0h1.64c.26,0,.48-.19.52-.45l.99-6.24c.03-.17-.09-.34-.26-.36-.02,0-.03,0-.05,0"/>
  <path class="cls-3" d="m63.51,32.35h-1.83c-.18,0-.34.09-.44.23l-2.53,3.72-1.07-3.58c-.07-.22-.27-.38-.51-.38h-1.8c-.18,0-.32.14-.32.32,0,.03,0,.07.02.1l2.02,5.93-1.9,2.68c-.1.14-.07.34.08.44.05.04.12.06.18.06h1.83c.17,0,.34-.08.43-.23l6.1-8.8c.1-.14.06-.34-.08-.44-.05-.04-.12-.06-.18-.06"/>
  <path class="cls-2" d="m83.11,29.1l-1.56,9.95c-.03.17.09.34.26.36.02,0,.03,0,.05,0h1.57c.26,0,.48-.19.52-.45l1.54-9.77c.03-.17-.09-.34-.26-.36-.02,0-.03,0-.05,0h-1.76c-.16,0-.29.11-.31.27"/>
  <path class="cls-3" d="m28.31,25.46c-.82-.94-2.31-1.34-4.21-1.34h-5.52c-.39,0-.72.28-.78.67l-2.3,14.57c-.04.26.14.5.39.54.02,0,.05,0,.07,0h3.41l.86-5.43-.03.17c.06-.38.39-.67.78-.67h1.62c3.18,0,5.67-1.29,6.4-5.03.02-.11.04-.22.06-.32.22-1.38,0-2.32-.75-3.17"/>
  <path class="cls-3" d="m21.16,28.65c.05-.34.34-.58.68-.58h4.33c.51,0,.99.03,1.43.1.24.04.47.09.71.16.26.07.52.18.76.3.22-1.38,0-2.32-.75-3.17-.82-.94-2.31-1.34-4.21-1.34h-5.52c-.39,0-.72.28-.78.67l-2.3,14.57c-.04.26.14.5.39.54.02,0,.05,0,.07,0h3.41l.86-5.43.92-5.83Z"/>
  <path class="cls-2" d="m29.06,28.63c-.02.11-.04.22-.06.32-.73,3.74-3.22,5.03-6.4,5.03h-1.62c-.39,0-.72.28-.78.67l-.83,5.26-.24,1.49c-.04.23.12.44.34.47.02,0,.04,0,.07,0h2.87c.34,0,.63-.25.68-.58l.03-.15.54-3.43.03-.19c.05-.34.34-.58.68-.58h.43c2.78,0,4.96-1.13,5.6-4.4.27-1.37.13-2.51-.57-3.31-.22-.25-.49-.45-.79-.61"/>
  <path class="cls-1" d="m28.3,28.33c-.11-.03-.23-.06-.34-.09s-.24-.05-.36-.07c-.44-.07-.91-.1-1.43-.1h-4.33c-.34,0-.63.25-.68.58l-.92,5.83-.03.17c.06-.38.39-.67.78-.67h1.62c3.18,0,5.67-1.29,6.4-5.03.02-.11.04-.22.06-.32-.19-.1-.39-.18-.6-.25-.05-.02-.11-.03-.16-.05"/>
</svg>