<?xml version="1.0" encoding="UTF-8"?>
<svg id="_Слой_1" data-name="Слой 1" xmlns="http://www.w3.org/2000/svg" viewBox="0 0 101 66">
  <defs>
    <style>
      .cls-1 {
        fill: #fff;
        fill-rule: evenodd;
      }

      .cls-2 {
        fill: #26a17b;
      }
    </style>
  </defs>
  <circle class="cls-2" cx="50.5" cy="33" r="20"/>
  <path class="cls-1" d="m52.9,34.73h0c-.14,0-.85.05-2.43.05-1.26,0-2.15-.04-2.46-.05h0c-4.86-.21-8.49-1.06-8.49-2.07s3.63-1.86,8.49-2.07v3.31c.32.02,1.23.08,2.48.08,1.51,0,2.26-.06,2.41-.07v-3.3c4.85.22,8.47,1.06,8.47,2.07s-3.62,1.86-8.47,2.07m0-4.49v-2.96h6.77v-4.51h-18.43v4.51h6.77v2.96c-5.5.25-9.64,1.34-9.64,2.65s4.14,2.39,9.64,2.65v9.48h4.89v-9.48c5.49-.25,9.62-1.34,9.62-2.65s-4.13-2.39-9.62-2.65"/>
</svg>