<?xml version="1.0" encoding="UTF-8"?>
<svg id="_Слой_1" data-name="Слой 1" xmlns="http://www.w3.org/2000/svg" viewBox="0 0 101 66">
  <defs>
    <style>
      .cls-1 {
        fill: #fff;
      }

      .cls-2 {
        fill: #ee9f2d;
      }

      .cls-3 {
        fill: #d9222a;
      }

      .cls-4 {
        fill: #e6a540;
      }

      .cls-5 {
        fill: #2566af;
      }
    </style>
  </defs>
  <g>
    <path class="cls-1" d="m32.09,45.94l-2.42,2.52v4.55h-4.14v-18h4.14v8.41l7.97-8.41h4.63l-7.46,8.02,7.89,9.98h-4.86l-5.76-7.07Z"/>
    <path class="cls-1" d="m59.14,49.61v3.39h-15.74v-2.7l9.87-11.91h-9.67v-3.39h15.15v2.7l-9.85,11.91h10.23Z"/>
    <path class="cls-1" d="m65.54,38.4h-5.76v-3.39h15.69v3.39h-5.76v14.61h-4.17v-14.61Z"/>
  </g>
  <g>
    <g>
      <path class="cls-3" d="m40.07,22.61c0,5.4-4.38,9.78-9.78,9.78s-9.78-4.38-9.78-9.78,4.38-9.78,9.78-9.78,9.78,4.38,9.78,9.78"/>
      <path class="cls-2" d="m43.42,12.83c-2.53,0-4.83.96-6.57,2.53-.35.32-.68.67-.99,1.04h1.98c.27.33.52.68.75,1.04h-3.47c-.21.33-.4.68-.56,1.04h4.6c.16.34.3.68.41,1.04h-5.42c-.11.34-.21.69-.28,1.04h5.99c.15.68.22,1.38.22,2.07,0,1.09-.18,2.13-.5,3.11h-5.42c.12.35.26.7.41,1.04h4.6c-.17.36-.36.7-.56,1.04h-3.47c.23.36.48.71.75,1.04h1.98c-.3.37-.63.72-.99,1.04,1.74,1.57,4.04,2.53,6.57,2.53,5.4,0,9.78-4.38,9.78-9.78s-4.38-9.78-9.78-9.78"/>
      <path d="m51.9,28.07c0-.17.14-.32.32-.32s.32.14.32.32-.14.32-.32.32-.32-.14-.32-.32Zm.32.24c.13,0,.24-.11.24-.24,0-.13-.11-.24-.24-.24h0c-.13,0-.24.11-.24.24h0c0,.13.11.24.24.24,0,0,0,0,0,0h0Zm-.04-.1h-.06v-.28h.12s.05,0,.07.01c.02.02.04.04.04.07,0,.03-.02.06-.05.07l.05.12h-.07l-.04-.11h-.05v.11Zm0-.16h.04s.03,0,.04,0c.01,0,.02-.02.02-.03,0-.01,0-.02-.02-.03-.01,0-.03,0-.04,0h-.03v.07h0Zm-24.17-4.36c-.11-.01-.16-.02-.24-.02-.6,0-.91.21-.91.61,0,.25.15.41.38.41.43,0,.74-.41.76-1.01h0Zm.77,1.8h-.88l.02-.42c-.27.33-.63.49-1.11.49-.58,0-.97-.45-.97-1.1,0-.98.69-1.56,1.87-1.56.12,0,.27.01.43.03.03-.13.04-.19.04-.26,0-.27-.19-.37-.68-.37-.52,0-.95.12-1.12.18.01-.07.15-.91.15-.91.53-.16.88-.21,1.27-.21.91,0,1.4.41,1.39,1.18,0,.21-.03.46-.09.8-.09.59-.29,1.84-.32,2.14h0Zm-3.39,0h-1.06l.61-3.82-1.36,3.82h-.72l-.09-3.79-.64,3.79h-.99l.83-4.96h1.53l.09,2.78.93-2.78h1.7l-.82,4.96m19.35-1.8c-.11-.01-.16-.02-.24-.02-.6,0-.91.21-.91.61,0,.25.15.41.38.41.43,0,.74-.41.76-1.01h0Zm.77,1.8h-.88l.02-.42c-.27.33-.63.49-1.11.49-.58,0-.97-.45-.97-1.1,0-.98.69-1.56,1.86-1.56.12,0,.27.01.43.03.03-.13.04-.19.04-.26,0-.27-.18-.37-.68-.37-.52,0-.95.12-1.12.18.01-.07.15-.91.15-.91.53-.16.88-.21,1.27-.21.91,0,1.4.41,1.39,1.18,0,.21-.03.46-.09.8-.09.59-.29,1.84-.32,2.14h0Zm-12.01-.06c-.29.09-.52.13-.76.13-.54,0-.84-.31-.84-.89,0-.18.08-.65.15-1.08.06-.38.46-2.75.46-2.75h1.06l-.12.61h.64l-.14.97h-.64c-.12.77-.3,1.72-.3,1.85,0,.21.11.3.36.3.12,0,.21-.01.29-.04l-.14.89m3.24-.03c-.36.11-.71.16-1.08.16-1.18,0-1.8-.62-1.8-1.8,0-1.38.78-2.4,1.85-2.4.87,0,1.43.57,1.43,1.46,0,.3-.04.58-.13.99h-2.1c-.07.59.3.83.92.83.38,0,.72-.08,1.1-.25l-.18,1h0Zm-.59-2.39c0-.08.11-.72-.49-.72-.34,0-.58.26-.67.72h1.17Zm-6.73-.27c0,.51.25.86.81,1.13.43.2.5.26.5.45,0,.25-.19.37-.61.37-.32,0-.61-.05-.95-.16,0,0-.14.89-.15.93.24.05.46.1,1.11.12,1.12,0,1.64-.43,1.64-1.35,0-.55-.22-.88-.75-1.12-.45-.2-.5-.25-.5-.44,0-.22.18-.33.52-.33.21,0,.49.02.76.06l.15-.94c-.28-.04-.69-.08-.93-.08-1.19,0-1.6.62-1.6,1.37m12.49-1.26c.29,0,.57.08.95.27l.17-1.08c-.16-.06-.7-.42-1.17-.42-.71,0-1.31.35-1.73.93-.62-.2-.87.21-1.18.62l-.28.06c.02-.14.04-.27.03-.41h-.98c-.13,1.25-.37,2.51-.55,3.77l-.05.27h1.06c.18-1.15.27-1.89.33-2.39l.4-.22c.06-.22.25-.3.62-.29-.05.27-.08.55-.08.83,0,1.32.71,2.14,1.86,2.14.29,0,.55-.04.94-.14l.19-1.13c-.35.17-.64.25-.9.25-.62,0-.99-.46-.99-1.21,0-1.09.56-1.86,1.35-1.86"/>
      <path class="cls-1" d="m25.69,25.19h-1.06l.61-3.81-1.36,3.81h-.72l-.09-3.79-.64,3.79h-.99l.83-4.96h1.53l.04,3.07,1.03-3.07h1.65l-.82,4.96"/>
      <path d="m50.89,20.52l-.24,1.43c-.29-.38-.6-.66-1.01-.66-.54,0-1.02.41-1.34,1-.44-.09-.9-.25-.9-.25h0c.04-.33.05-.53.05-.6h-.98c-.13,1.25-.37,2.51-.55,3.77l-.05.27h1.06c.14-.93.25-1.71.33-2.32.36-.33.54-.61.91-.59-.16.39-.26.85-.26,1.31,0,1.01.51,1.67,1.28,1.67.39,0,.69-.13.98-.45l-.05.38h1l.81-4.96h-1.05s0,0,0,0Zm-1.33,4.03c-.36,0-.54-.27-.54-.8,0-.79.34-1.36.82-1.36.36,0,.56.28.56.79,0,.8-.35,1.36-.84,1.36h0Z"/>
      <path class="cls-1" d="m28.3,23.39c-.11-.01-.16-.02-.24-.02-.6,0-.91.21-.91.61,0,.25.15.41.38.41.43,0,.74-.41.76-1.01h0Zm.77,1.8h-.88l.02-.42c-.27.33-.63.49-1.11.49-.58,0-.97-.45-.97-1.1,0-.98.69-1.56,1.87-1.56.12,0,.27.01.43.03.03-.13.04-.19.04-.26,0-.27-.18-.37-.68-.37-.52,0-.95.12-1.12.18.01-.07.15-.91.15-.91.53-.16.88-.21,1.27-.21.91,0,1.4.41,1.39,1.18,0,.21-.03.46-.09.8-.09.58-.29,1.84-.32,2.14h0Zm14.25-4.83l-.17,1.08c-.38-.19-.65-.27-.95-.27-.79,0-1.35.77-1.35,1.86,0,.75.37,1.21.99,1.21.26,0,.55-.08.9-.25l-.19,1.13c-.39.11-.64.15-.94.15-1.14,0-1.86-.82-1.86-2.14,0-1.77.98-3.01,2.39-3.01.46,0,1.01.2,1.17.26m1.71,3.03c-.11-.01-.16-.02-.24-.02-.6,0-.91.21-.91.61,0,.25.15.41.38.41.43,0,.74-.41.76-1.01h0Zm.77,1.8h-.88l.02-.42c-.27.33-.63.49-1.11.49-.58,0-.97-.45-.97-1.1,0-.98.69-1.56,1.86-1.56.12,0,.27.01.43.03.03-.13.04-.19.04-.26,0-.27-.18-.37-.68-.37-.52,0-.95.12-1.12.18.01-.07.15-.91.15-.91.53-.16.88-.21,1.27-.21.91,0,1.4.41,1.39,1.18,0,.21-.03.46-.09.8-.09.58-.29,1.84-.32,2.14h0Zm-12.01-.06c-.29.09-.52.13-.76.13-.54,0-.84-.31-.84-.89,0-.18.08-.65.15-1.08.06-.38.46-2.75.46-2.75h1.06l-.12.61h.54l-.14.97h-.54c-.12.77-.3,1.72-.3,1.85,0,.21.11.3.36.3.12,0,.21-.01.29-.04l-.14.89m3.24-.03c-.36.11-.71.16-1.08.16-1.18,0-1.8-.62-1.8-1.8,0-1.38.78-2.4,1.85-2.4.87,0,1.43.57,1.43,1.46,0,.3-.04.59-.13.99h-2.1c-.07.59.3.83.92.83.38,0,.72-.08,1.1-.25l-.18,1h0Zm-.59-2.39c0-.08.11-.72-.49-.72-.34,0-.58.26-.67.72h1.17Zm-6.73-.27c0,.51.25.86.81,1.13.43.2.5.26.5.45,0,.25-.19.37-.61.37-.32,0-.61-.05-.95-.16,0,0-.14.89-.15.93.24.05.46.1,1.11.12,1.12,0,1.64-.43,1.64-1.35,0-.55-.22-.88-.75-1.12-.45-.2-.5-.25-.5-.44,0-.22.18-.33.52-.33.21,0,.49.02.76.06l.15-.94c-.27-.04-.69-.08-.93-.08-1.19,0-1.6.62-1.6,1.37m21.72,2.76h-1l.05-.38c-.29.31-.59.45-.98.45-.77,0-1.28-.67-1.28-1.67,0-1.34.79-2.47,1.73-2.47.41,0,.72.17,1.01.55l.24-1.43h1.05l-.81,4.96h0Zm-1.57-.93c.49,0,.84-.56.84-1.36,0-.51-.2-.79-.56-.79-.48,0-.82.56-.82,1.36,0,.53.18.8.54.8Zm-3.1-3.1c-.13,1.25-.37,2.51-.55,3.76l-.05.27h1.06c.38-2.47.47-2.95,1.07-2.89.09-.51.27-.95.4-1.17-.44-.09-.69.16-1.02.64.03-.21.07-.41.06-.61h-.98m-8.74,0c-.13,1.25-.37,2.51-.55,3.76l-.05.27h1.06c.38-2.47.47-2.95,1.07-2.89.1-.51.27-.95.4-1.17-.44-.09-.69.16-1.02.64.03-.21.07-.41.06-.61h-.98m13.88,3.72c0-.17.14-.32.32-.32h0c.17,0,.32.14.32.32h0c0,.18-.14.32-.32.32-.17,0-.32-.14-.32-.32h0Zm.32.24c.13,0,.24-.11.24-.24h0c0-.13-.11-.24-.24-.24h0c-.13,0-.24.11-.24.24,0,.13.11.24.24.24h0Zm-.04-.1h-.06v-.28h.12s.05,0,.07.01c.02.02.04.04.04.07,0,.03-.02.06-.05.07l.05.12h-.07l-.04-.11h-.05v.11s0,0,0,0Zm0-.16h.04s.03,0,.04,0c.01,0,.02-.02.02-.03,0-.01,0-.02-.02-.03-.01,0-.03,0-.04,0h-.03v.07s0,0,0,0Z"/>
    </g>
    <path d="m53.38,23.02l-.9-4.61s-.11-.92-1.27-.92h-4.21l-.05.17s2.02.42,3.96,1.99c1.85,1.5,2.46,3.37,2.46,3.37Z"/>
    <g>
      <path class="cls-5" d="m61.97,27.74h-2.67l1.67-10.25h2.67l-1.67,10.25Zm-4.91-10.25l-2.54,7.05-.3-1.52h0s-.9-4.61-.9-4.61c0,0-.11-.92-1.27-.92h-4.21l-.05.17s1.29.27,2.79,1.17l2.32,8.9h2.78l4.25-10.25h-2.87Zm20.99,10.25h2.45l-2.14-10.25h-2.15c-.99,0-1.23.76-1.23.76l-3.98,9.49h2.78l.56-1.52h3.39l.31,1.52h0Zm-2.94-3.63l1.4-3.84.79,3.84h-2.19Zm-3.9-4.16l.38-2.2s-1.18-.45-2.4-.45c-1.32,0-4.47.58-4.47,3.39,0,2.65,3.69,2.68,3.69,4.07s-3.31,1.14-4.4.26l-.4,2.3s1.19.58,3.01.58,4.57-.94,4.57-3.51-3.72-2.91-3.72-4.07c0-1.16,2.6-1.01,3.74-.38h0Z"/>
      <path class="cls-4" d="m54.22,23.02l-.9-4.61s-.11-.92-1.27-.92h-4.21l-.05.17s2.02.42,3.96,1.99c1.85,1.5,2.46,3.37,2.46,3.37Z"/>
    </g>
  </g>
</svg>