<?xml version="1.0" encoding="UTF-8"?>
<svg id="_Слой_1" data-name="Слой 1" xmlns="http://www.w3.org/2000/svg" viewBox="0 0 101 66">
  <defs>
    <style>
      .cls-1 {
        fill: #e6a540;
      }

      .cls-2 {
        fill: #2566af;
      }
    </style>
  </defs>
  <path class="cls-2" d="m45.85,43.98h-5.71l3.57-21.94h5.71l-3.57,21.94Zm-10.52-21.94l-5.45,15.09-.64-3.25h0s-1.92-9.87-1.92-9.87c0,0-.23-1.98-2.71-1.98h-9l-.11.37s2.75.57,5.97,2.51l4.96,19.06h5.95l9.09-21.94h-6.15Zm44.93,21.94h5.24l-4.57-21.94h-4.59c-2.12,0-2.64,1.63-2.64,1.63l-8.52,20.3h5.95l1.19-3.26h7.26l.67,3.26h0Zm-6.29-7.76l3-8.21,1.69,8.21h-4.69Zm-8.34-8.9l.82-4.71s-2.52-.96-5.14-.96c-2.83,0-9.57,1.24-9.57,7.26,0,5.67,7.9,5.74,7.9,8.72s-7.09,2.44-9.42.57l-.85,4.93s2.55,1.24,6.45,1.24,9.78-2.02,9.78-7.51-7.97-6.24-7.97-8.72c0-2.48,5.56-2.16,8.01-.82h0Z"/>
  <path class="cls-1" d="m29.24,33.88l-1.92-9.87s-.23-1.98-2.71-1.98h-9l-.11.37s4.33.9,8.48,4.26c3.97,3.21,5.26,7.21,5.26,7.21Z"/>
</svg>