<?xml version="1.0" encoding="UTF-8"?>
<svg id="_Слой_1" data-name="Слой 1" xmlns="http://www.w3.org/2000/svg" viewBox="0 0 101 66">
  <defs>
    <style>
      .cls-1 {
        fill: #fff;
      }

      .cls-2 {
        fill: #008ce7;
      }
    </style>
  </defs>
  <circle class="cls-2" cx="50.5" cy="33" r="20"/>
  <g>
    <path class="cls-1" d="m54.36,23h-9.1l-.75,4.21h8.2c4.04.01,5.24,1.48,5.2,3.91-.02,1.25-.56,3.36-.79,4.04-.62,1.83-1.9,3.9-6.7,3.9h-7.97s-.75,4.21-.75,4.21h9.07c3.2,0,4.56-.37,6-1.04,3.19-1.47,5.09-4.63,5.86-8.74,1.13-6.12-.28-10.48-8.27-10.48h0Z"/>
    <path class="cls-1" d="m50.26,32.75c.3-1.23.39-1.73.39-1.73h-9.31c-2.38,0-2.72,1.55-2.95,2.49-.3,1.23-.39,1.73-.39,1.73h9.31c2.38,0,2.72-1.55,2.94-2.49Z"/>
  </g>
</svg>