<?xml version="1.0" encoding="UTF-8"?>
<svg id="_Слой_1" data-name="Слой 1" xmlns="http://www.w3.org/2000/svg" viewBox="0 0 101 66">
  <defs>
    <style>
      .cls-1 {
        fill: #131313;
      }

      .cls-1, .cls-2, .cls-3, .cls-4 {
        fill-rule: evenodd;
      }

      .cls-2 {
        fill: #343535;
      }

      .cls-3 {
        fill: #828384;
      }

      .cls-4 {
        fill: #2f3030;
      }
    </style>
  </defs>
  <path class="cls-3" d="m50.49,13s.02,0,.03,0c0,0,0,.03,0,.04-.07.7-.01,1.42-.03,2.12,0,3.93,0,7.87,0,11.8,0,.28.01.57-.03.85-3.96,1.77-7.9,3.59-11.86,5.37-.13.06-.26.13-.38.21l-.02.02c2.81-4.65,5.61-9.3,8.41-13.95,1.29-2.15,2.61-4.29,3.88-6.46h0Zm-12.21,22.78c4.06,2.42,8.14,4.82,12.21,7.22,0,3.34,0,6.67,0,10.01-4.07-5.74-8.15-11.47-12.21-17.22Z"/>
  <path class="cls-4" d="m50.49,15.16c.02-.71-.04-1.42.03-2.12,1.39,2.24,2.72,4.51,4.09,6.76,2.35,3.91,4.71,7.81,7.06,11.72.37.64.79,1.26,1.14,1.92l-.04-.03c-.45-.29-.96-.47-1.44-.7-2.88-1.31-5.76-2.62-8.65-3.93-.72-.31-1.42-.68-2.16-.96-.04,1.64,0,3.27-.02,4.91,0,2.65.01,5.3,0,7.94l-.05-.06c-.02-3.84,0-7.67-.01-11.51,0-.43-.03-.86.03-1.29.04-.28.03-.57.03-.85,0-3.93,0-7.87,0-11.8h0Zm0,27.83c0,3.34,0,6.67,0,10.01.04-.04.09-.08.12-.12,4.06-5.72,8.12-11.45,12.19-17.17-4.11,2.42-8.22,4.84-12.32,7.28Z"/>
  <path class="cls-2" d="m38.6,33.19c3.96-1.78,7.89-3.61,11.86-5.37-.06.43-.02.86-.03,1.29,0,3.83-.01,7.67.01,11.51-4.08-2.39-8.14-4.81-12.21-7.21.12-.08.25-.15.38-.21Z"/>
  <path class="cls-1" d="m50.52,27.82c.73.28,1.44.64,2.16.96,2.88,1.31,5.76,2.62,8.65,3.93.48.23.99.41,1.44.7-4.08,2.43-8.18,4.83-12.27,7.26.02-2.65,0-5.29,0-7.94,0-1.64-.02-3.27.02-4.91Z"/>
</svg>