<?xml version="1.0" encoding="UTF-8"?>
<svg id="_Слой_1" data-name="Слой 1" xmlns="http://www.w3.org/2000/svg" viewBox="0 0 101 66">
  <defs>
    <style>
      .cls-1 {
        fill: #f01010;
      }

      .cls-2 {
        fill: #fefefe;
        fill-rule: evenodd;
      }
    </style>
  </defs>
  <circle class="cls-1" cx="50.5" cy="33" r="20"/>
  <path class="cls-2" d="m49.65,26.52h-1.69c-.28-.03-.62-.03-.95-.06-.09.03-.12.12-.15.25-.03.12,0,.22.06.31l.37.03c.46.09.8.18,1.02.28.21.12.37.34.43.62.06.28.09.65.06,1.11-.03.65-.06,1.42-.09,2.31-.03.89-.09,1.82-.15,2.77-.06,1.48-.19,5.08-.6,6.14-.09.25-.25.4-.43.49-.22.09-.46.18-.77.22l-.49.06c-.09.06-.12.15-.09.31,0,.09.03.18.12.28.4-.03.77-.06,1.17-.09h2.44c.46.03.86.06,1.23.09.09-.06.15-.15.15-.28s-.03-.22-.12-.31l-.86-.06c-.28-.03-.49-.09-.65-.22-.08-.06-.14-.15-.19-.25-.18-.44-.19-1.18-.18-1.64.02-.96.03-1.91.06-2.86.03-.96.06-1.79.09-2.5.03-.65.09-1.33.12-2,.03-.68.06-1.36.09-2.03h.06c.25.52.49,1.05.71,1.63.25.55.49,1.11.74,1.63l2.06,4.4c.19.37.4.83.65,1.39.28.59.55,1.14.8,1.69.13.29.24.57.34.83.02,0,.2.57.22.63.12.12.31.12.43,0,.19-.46.39-.92.61-1.37.58-1.31,1.19-2.56,1.88-3.82l2-3.97c.15-.34.31-.71.52-1.11.22-.43.43-.83.62-1.17.15-.37.28-.62.34-.71h.03l.06,9.52c.03.49,0,.86-.03,1.14-.02.22-.09.43-.3.54-.12.15-.37.21-.77.25l-.68.06c-.06.06-.09.15-.06.31,0,.09.03.18.12.28.46-.03.96-.06,1.42-.09h2.65c.46.03.92.06,1.39.09.09-.06.12-.15.12-.28.03-.12,0-.22-.06-.31l-.74-.06c-.34-.03-.59-.12-.74-.28-.15-.15-.28-.34-.31-.59-.03-.28-.06-.62-.06-.99-.06-1.15-.11-2.31-.14-3.46-.03-1.23-.09-2.4-.12-3.51v-2.93c0-.52.03-.92.09-1.23.06-.28.22-.52.43-.68.22-.12.59-.22,1.08-.28l.46-.03c.06-.06.09-.15.06-.31,0-.09-.03-.18-.09-.25-.37.03-.74.03-1.08.06h-1.66c-.28-.03-.59-.03-.99-.06-.03.52-.22,1.11-.49,1.79-.34.71-.74,1.57-1.23,2.59l-2.16,4.34c-.56,1.18-1.07,2.31-1.75,3.43h-.06c-.55-1.03-1.05-2.1-1.54-3.15l-2.62-5.24c-.34-.74-.65-1.45-.89-2.09-.22-.65-.31-1.2-.28-1.66-.37.03-.71.03-1.05.06h0Zm-12.64,11.71c0,.78-.03,1.38-.09,1.79-.06.79-.58,1.05-1.32,1.1l-.47.06c-.15.15-.14.48.03.6.97-.06,1.85-.09,2.83-.09,1.04,0,2.01.05,3.05.09.06-.06.1-.16.13-.28,0-.16-.03-.25-.09-.31l-.63-.06c-.5-.03-.85-.13-1.04-.28-.01,0-.02-.02-.03-.03-.19-.16-.33-.4-.38-.77-.06-.41-.09-1-.06-1.79v-2.2c-.69.03-1.32,0-1.89-.09l-.03,2.27h0Zm-2.02-11.47c-.03.13.03.22.13.31l.82.09c.35.03.6.13.75.28.16.13.25.35.28.69.03.34.06.85.06,1.51v4.65c.63.03,1.26.03,1.89,0v-6.41c-.03-.25,0-.44.06-.6.03-.09.16-.19.31-.22.19-.03.5-.03.91-.03,1.19.03,2.1.34,2.76,1,.63.66.94,1.57.94,2.7.03,1-.22,1.85-.75,2.54-.47.6-1.16,1.04-2.1,1.26-.91.22-2.2.31-3.93.28-1.51-.03-3.14-.12-4.93-.31,1.98.41,3.45.69,4.4.78,1.54.19,3.05.16,4.46-.06.72-.1,1.38-.28,1.98-.5.57-.25,1.13-.6,1.73-1.01.35-.25.66-.66.94-1.19.22-.5.35-1.1.38-1.82-.03-.79-.22-1.47-.56-2.07-.35-.6-.75-1.07-1.29-1.41-.53-.31-1.19-.57-1.95-.72-.72-.13-1.57-.19-2.54-.19s-1.79,0-2.54.03c-.75.03-1.44.06-2.04.13-.09.06-.16.16-.16.28Z"/>
</svg>